<svg xmlns="http://www.w3.org/2000/svg" viewBox="0 0 24 24" fill="#10A37F">
  <path d="M22.2819 9.8211a5.9847 5.9847 0 0 0-.5157-4.9108 6.0462 6.0462 0 0 0-6.5242-2.9401 6.0651 6.0651 0 0 0-4.5261-1.9901 6.0836 6.0836 0 0 0-5.7738 4.2818 6.0809 6.0809 0 0 0-4.0762 2.9401 6.0885 6.0885 0 0 0 .7516 7.1855 5.9847 5.9847 0 0 0 .5157 4.9108 6.0462 6.0462 0 0 0 6.5242 2.9402 6.0651 6.0651 0 0 0 4.5261 1.9901 6.0836 6.0836 0 0 0 5.7738-4.2818 6.0809 6.0809 0 0 0 4.0762-2.9401 6.0885 6.0885 0 0 0-.7516-7.1855zm-9.0922 12.6527a4.5212 4.5212 0 0 1-2.9025-1.0542l.1419-.0811 4.7693-2.7528a.7933.7933 0 0 0 .3949-.6813v-6.7382l2.0149 1.1628a.0762.0762 0 0 1 .0422.0601v5.5666a4.5466 4.5466 0 0 1-4.5208 4.5287zm-9.7304-4.1574a4.5133 4.5133 0 0 1-.5381-3.0137l.1419.0851 4.7693 2.7528a.7933.7933 0 0 0 .7898 0l5.8171-3.3581v2.3255a.0762.0762 0 0 1-.0304.0662l-4.8009 2.7692a4.5444 4.5444 0 0 1-6.0487-1.6409zM3.6624 7.9968a4.5257 4.5257 0 0 1 2.3651-1.9708V11.6l5.8171 3.3581-.0001.0662-4.8009 2.7692a4.5444 4.5444 0 0 1-6.0487-1.6409 4.5133 4.5133 0 0 1-.5381-3.0137l.1419.0851 4.7693 2.7528a.7933.7933 0 0 0 .7898 0l5.8171-3.3581-2.0149-1.1628a.0762.0762 0 0 1-.0422-.0601V4.5287a4.5466 4.5466 0 0 1 4.5208-4.5287 4.5212 4.5212 0 0 1 2.9025 1.0542l-.1419.0811-4.7693 2.7528a.7933.7933 0 0 0-.3949.6813v6.7382l-2.0149-1.1628a.0762.0762 0 0 1-.0422-.0601V7.9968z"/>
</svg>
