<svg xmlns="http://www.w3.org/2000/svg" viewBox="0 0 24 24" fill="#00457C">
  <path d="M19.54 7.44c-.23-1.2-.92-2.16-1.91-2.73-.99-.57-2.21-.8-3.47-.8H7.63c-.44 0-.82.32-.89.76L4.13 19.24c-.09.47.29.9.77.9h3.63l.91-5.77c.08-.5.5-.87 1-.87h2.08c4.11 0 7.34-3.33 7.34-7.43 0-1.37-.37-2.66-1.02-3.73z"/>
  <path d="M8.96 12.21l.91-5.77c.08-.5.5-.87 1-.87h5.63c.66 0 1.27.13 1.84.37.57.24 1.07.59 1.48 1.03.41.44.72.96.93 1.54.21.58.32 1.2.32 1.84 0 1.37-.37 2.66-1.02 3.73-.65 1.07-1.57 1.91-2.68 2.45-.99.5-2.11.76-3.27.76h-2.08c-.5 0-.92.37-1 .87l-.91 5.77h-3.63l2.5-15.87h3.63l-.91 5.77z"/>
</svg>
