<svg xmlns="http://www.w3.org/2000/svg" viewBox="0 0 24 24" fill="#FF3E00">
  <path d="M18.39 15.54c.27-.66.42-1.38.42-2.13 0-3.09-2.5-5.59-5.59-5.59h-.71l-.53-.53a5.078 5.078 0 0 0-7.2 0 5.078 5.078 0 0 0 0 7.2l.53.53-.53.53a5.078 5.078 0 0 0 0 7.2c1 1 2.31 1.49 3.6 1.49s2.61-.5 3.6-1.49l.53-.53.53.53a5.078 5.078 0 0 0 7.2 0 5.078 5.078 0 0 0 0-7.2l-.53-.53.53-.53a5.078 5.078 0 0 0 0-7.2 5.078 5.078 0 0 0-7.2 0l-.53.53v-.71c0-3.09-2.5-5.59-5.59-5.59S2.41 6.45 2.41 9.54c0 .75.15 1.47.42 2.13-1.61.89-2.71 2.59-2.71 4.54 0 2.89 2.34 5.23 5.23 5.23 1.95 0 3.65-1.1 4.54-2.71.66.27 1.38.42 2.13.42 3.09 0 5.59-2.5 5.59-5.59 0-1.95-1.1-3.65-2.71-4.54z"/>
</svg>
